<?xml version="1.0" encoding="UTF-8" standalone="no"?>
<!DOCTYPE svg PUBLIC "-//W3C//DTD SVG 1.1//EN"
 "http://www.w3.org/Graphics/SVG/1.1/DTD/svg11.dtd">
<!-- Generated by graphviz version 14.1.1 (20251213.1925)
 -->
<!-- Title: Architecture Pages: 1 -->
<svg width="705pt" height="727pt"
 viewBox="0.00 0.00 705.00 727.00" xmlns="http://www.w3.org/2000/svg" xmlns:xlink="http://www.w3.org/1999/xlink">
<g id="graph0" class="graph" transform="scale(1 1) rotate(0) translate(4 723)">
<title>Architecture</title>
<polygon fill="white" stroke="none" points="-4,4 -4,-723 700.5,-723 700.5,4 -4,4"/>
<g id="clust1" class="cluster">
<title>cluster_vscode</title>
<polygon fill="none" stroke="black" stroke-dasharray="5,2" points="8,-8 8,-711 696.5,-711 696.5,-8 8,-8"/>
<text xml:space="preserve" text-anchor="middle" x="352.25" y="-693.7" font-family="Times New Roman,serif" font-size="14.00">VS Code</text>
</g>
<g id="clust2" class="cluster">
<title>cluster_ext</title>
<polygon fill="#e8f4e8" stroke="black" stroke-dasharray="5,2" points="16,-16 16,-678 356.5,-678 356.5,-16 16,-16"/>
<text xml:space="preserve" text-anchor="middle" x="186.25" y="-660.7" font-family="Times New Roman,serif" font-size="14.00">Extension Host (Node.js)</text>
</g>
<g id="clust3" class="cluster">
<title>cluster_modules</title>
<polygon fill="#e8f4e8" stroke="black" stroke-dasharray="5,2" points="204.5,-82 204.5,-645 316,-645 316,-82 204.5,-82"/>
<text xml:space="preserve" text-anchor="middle" x="260.25" y="-627.7" font-family="Times New Roman,serif" font-size="14.00">Feature Modules</text>
</g>
<g id="clust4" class="cluster">
<title>cluster_webviews</title>
<polygon fill="#e8e8f4" stroke="black" stroke-dasharray="5,2" points="444.5,-16 444.5,-463 688.5,-463 688.5,-16 444.5,-16"/>
<text xml:space="preserve" text-anchor="middle" x="566.5" y="-445.7" font-family="Times New Roman,serif" font-size="14.00">Webview Processes (Browser Sandboxes)</text>
</g>
<!-- HostEditor -->
<g id="node1" class="node">
<title>HostEditor</title>
<path fill="none" stroke="black" d="M336.5,-71.5C336.5,-71.5 184,-71.5 184,-71.5 178,-71.5 172,-65.5 172,-59.5 172,-59.5 172,-36.5 172,-36.5 172,-30.5 178,-24.5 184,-24.5 184,-24.5 336.5,-24.5 336.5,-24.5 342.5,-24.5 348.5,-30.5 348.5,-36.5 348.5,-36.5 348.5,-59.5 348.5,-59.5 348.5,-65.5 342.5,-71.5 336.5,-71.5"/>
<text xml:space="preserve" text-anchor="middle" x="260.25" y="-54.2" font-family="Segoe UI" font-size="14.00">HostEditor</text>
<text xml:space="preserve" text-anchor="middle" x="260.25" y="-34.7" font-family="Segoe UI" font-size="14.00">(VS Code API Abstraction)</text>
</g>
<!-- Extension -->
<g id="node2" class="node">
<title>Extension</title>
<path fill="none" stroke="black" d="M103.75,-158.5C103.75,-158.5 36,-158.5 36,-158.5 30,-158.5 24,-152.5 24,-146.5 24,-146.5 24,-123.5 24,-123.5 24,-117.5 30,-111.5 36,-111.5 36,-111.5 103.75,-111.5 103.75,-111.5 109.75,-111.5 115.75,-117.5 115.75,-123.5 115.75,-123.5 115.75,-146.5 115.75,-146.5 115.75,-152.5 109.75,-158.5 103.75,-158.5"/>
<text xml:space="preserve" text-anchor="middle" x="69.88" y="-141.2" font-family="Segoe UI" font-size="14.00">extension.ts</text>
<text xml:space="preserve" text-anchor="middle" x="69.88" y="-121.7" font-family="Segoe UI" font-size="14.00">(Entry Point)</text>
</g>
<!-- Extension&#45;&gt;HostEditor -->
<g id="edge1" class="edge">
<title>Extension&#45;&gt;HostEditor</title>
<path fill="none" stroke="black" d="M109.39,-111.1C127.91,-100.18 150.68,-87.58 172,-78 173.32,-77.41 174.65,-76.82 175.99,-76.24"/>
<polygon fill="black" stroke="black" points="177.19,-79.53 185.09,-72.47 174.51,-73.06 177.19,-79.53"/>
<text xml:space="preserve" text-anchor="middle" x="143.88" y="-101.34" font-family="Segoe UI" font-size="10.00">uses</text>
</g>
<!-- Database -->
<g id="node3" class="node">
<title>Database</title>
<path fill="none" stroke="black" d="M286.25,-126C286.25,-126 234.25,-126 234.25,-126 228.25,-126 222.25,-120 222.25,-114 222.25,-114 222.25,-102 222.25,-102 222.25,-96 228.25,-90 234.25,-90 234.25,-90 286.25,-90 286.25,-90 292.25,-90 298.25,-96 298.25,-102 298.25,-102 298.25,-114 298.25,-114 298.25,-120 292.25,-126 286.25,-126"/>
<text xml:space="preserve" text-anchor="middle" x="260.25" y="-104.45" font-family="Segoe UI" font-size="14.00">database/</text>
</g>
<!-- Extension&#45;&gt;Database -->
<g id="edge2" class="edge">
<title>Extension&#45;&gt;Database</title>
<path fill="none" stroke="black" d="M116,-128.53C144.53,-124.44 181.41,-119.16 210.6,-114.97"/>
<polygon fill="black" stroke="black" points="210.88,-118.47 220.29,-113.58 209.89,-111.54 210.88,-118.47"/>
</g>
<!-- Editor -->
<g id="node4" class="node">
<title>Editor</title>
<path fill="none" stroke="black" d="M277.25,-180C277.25,-180 243.25,-180 243.25,-180 237.25,-180 231.25,-174 231.25,-168 231.25,-168 231.25,-156 231.25,-156 231.25,-150 237.25,-144 243.25,-144 243.25,-144 277.25,-144 277.25,-144 283.25,-144 289.25,-150 289.25,-156 289.25,-156 289.25,-168 289.25,-168 289.25,-174 283.25,-180 277.25,-180"/>
<text xml:space="preserve" text-anchor="middle" x="260.25" y="-158.45" font-family="Segoe UI" font-size="14.00">editor/</text>
</g>
<!-- Extension&#45;&gt;Editor -->
<g id="edge3" class="edge">
<title>Extension&#45;&gt;Editor</title>
<path fill="none" stroke="black" d="M116,-141.47C147.65,-146 189.57,-152.01 219.88,-156.36"/>
<polygon fill="black" stroke="black" points="218.98,-159.76 229.38,-157.72 219.98,-152.83 218.98,-159.76"/>
</g>
<!-- Links -->
<g id="node5" class="node">
<title>Links</title>
<path fill="none" stroke="black" d="M275.25,-234C275.25,-234 245.25,-234 245.25,-234 239.25,-234 233.25,-228 233.25,-222 233.25,-222 233.25,-210 233.25,-210 233.25,-204 239.25,-198 245.25,-198 245.25,-198 275.25,-198 275.25,-198 281.25,-198 287.25,-204 287.25,-210 287.25,-210 287.25,-222 287.25,-222 287.25,-228 281.25,-234 275.25,-234"/>
<text xml:space="preserve" text-anchor="middle" x="260.25" y="-212.45" font-family="Segoe UI" font-size="14.00">links/</text>
</g>
<!-- Extension&#45;&gt;Links -->
<g id="edge4" class="edge">
<title>Extension&#45;&gt;Links</title>
<path fill="none" stroke="black" d="M111.34,-158.89C129.5,-169.01 151.43,-180.42 172,-189 188.01,-195.68 206.28,-201.59 221.95,-206.15"/>
<polygon fill="black" stroke="black" points="220.8,-209.47 231.37,-208.83 222.71,-202.73 220.8,-209.47"/>
</g>
<!-- dbApp -->
<g id="node13" class="node">
<title>dbApp</title>
<path fill="none" stroke="black" d="M603.25,-90.25C603.25,-90.25 528.75,-90.25 528.75,-90.25 522.75,-90.25 516.75,-84.25 516.75,-78.25 516.75,-78.25 516.75,-35.75 516.75,-35.75 516.75,-29.75 522.75,-23.75 528.75,-23.75 528.75,-23.75 603.25,-23.75 603.25,-23.75 609.25,-23.75 615.25,-29.75 615.25,-35.75 615.25,-35.75 615.25,-78.25 615.25,-78.25 615.25,-84.25 609.25,-90.25 603.25,-90.25"/>
<text xml:space="preserve" text-anchor="middle" x="566" y="-72.95" font-family="Segoe UI" font-size="14.00">dbApp</text>
<text xml:space="preserve" text-anchor="middle" x="566" y="-53.45" font-family="Segoe UI" font-size="14.00">(Database UI)</text>
<text xml:space="preserve" text-anchor="middle" x="566" y="-33.95" font-family="Segoe UI" font-size="14.00">React</text>
</g>
<!-- Database&#45;&gt;dbApp -->
<g id="edge5" class="edge">
<title>Database&#45;&gt;dbApp</title>
<path fill="none" stroke="blue" stroke-dasharray="5,2" d="M298.5,-101.75C350.1,-93.08 443.9,-77.33 505.33,-67.02"/>
<polygon fill="blue" stroke="blue" points="505.63,-70.52 514.92,-65.41 504.47,-63.61 505.63,-70.52"/>
<text xml:space="preserve" text-anchor="middle" x="396.5" y="-94.8" font-family="Segoe UI" font-size="10.00">postMessage</text>
</g>
<!-- commentApp -->
<g id="node14" class="node">
<title>commentApp</title>
<path fill="none" stroke="black" d="M619,-175.25C619,-175.25 513,-175.25 513,-175.25 507,-175.25 501,-169.25 501,-163.25 501,-163.25 501,-120.75 501,-120.75 501,-114.75 507,-108.75 513,-108.75 513,-108.75 619,-108.75 619,-108.75 625,-108.75 631,-114.75 631,-120.75 631,-120.75 631,-163.25 631,-163.25 631,-169.25 625,-175.25 619,-175.25"/>
<text xml:space="preserve" text-anchor="middle" x="566" y="-157.95" font-family="Segoe UI" font-size="14.00">commentApp</text>
<text xml:space="preserve" text-anchor="middle" x="566" y="-138.45" font-family="Segoe UI" font-size="14.00">(Comments Panel)</text>
<text xml:space="preserve" text-anchor="middle" x="566" y="-118.95" font-family="Segoe UI" font-size="14.00">React</text>
</g>
<!-- Editor&#45;&gt;commentApp -->
<g id="edge6" class="edge">
<title>Editor&#45;&gt;commentApp</title>
<path fill="none" stroke="blue" stroke-dasharray="5,2" d="M289.55,-160.14C334.71,-157.16 424.55,-151.25 489.37,-146.98"/>
<polygon fill="blue" stroke="blue" points="489.51,-150.48 499.25,-146.33 489.05,-143.49 489.51,-150.48"/>
<text xml:space="preserve" text-anchor="middle" x="396.5" y="-159.71" font-family="Segoe UI" font-size="10.00">postMessage</text>
</g>
<!-- dateApp -->
<g id="node15" class="node">
<title>dateApp</title>
<path fill="none" stroke="black" d="M601,-260.25C601,-260.25 531,-260.25 531,-260.25 525,-260.25 519,-254.25 519,-248.25 519,-248.25 519,-205.75 519,-205.75 519,-199.75 525,-193.75 531,-193.75 531,-193.75 601,-193.75 601,-193.75 607,-193.75 613,-199.75 613,-205.75 613,-205.75 613,-248.25 613,-248.25 613,-254.25 607,-260.25 601,-260.25"/>
<text xml:space="preserve" text-anchor="middle" x="566" y="-242.95" font-family="Segoe UI" font-size="14.00">dateApp</text>
<text xml:space="preserve" text-anchor="middle" x="566" y="-223.45" font-family="Segoe UI" font-size="14.00">(Date Picker)</text>
<text xml:space="preserve" text-anchor="middle" x="566" y="-203.95" font-family="Segoe UI" font-size="14.00">React</text>
</g>
<!-- Editor&#45;&gt;dateApp -->
<g id="edge7" class="edge">
<title>Editor&#45;&gt;dateApp</title>
<path fill="none" stroke="blue" stroke-dasharray="5,2" d="M289.55,-168.06C339.19,-178.68 442.82,-200.85 507.86,-214.77"/>
<polygon fill="blue" stroke="blue" points="506.75,-218.11 517.26,-216.78 508.21,-211.27 506.75,-218.11"/>
<text xml:space="preserve" text-anchor="middle" x="396.5" y="-201.2" font-family="Segoe UI" font-size="10.00">postMessage</text>
</g>
<!-- dictateApp -->
<g id="node16" class="node">
<title>dictateApp</title>
<path fill="none" stroke="black" d="M613.38,-345.25C613.38,-345.25 518.62,-345.25 518.62,-345.25 512.62,-345.25 506.62,-339.25 506.62,-333.25 506.62,-333.25 506.62,-290.75 506.62,-290.75 506.62,-284.75 512.62,-278.75 518.62,-278.75 518.62,-278.75 613.38,-278.75 613.38,-278.75 619.38,-278.75 625.38,-284.75 625.38,-290.75 625.38,-290.75 625.38,-333.25 625.38,-333.25 625.38,-339.25 619.38,-345.25 613.38,-345.25"/>
<text xml:space="preserve" text-anchor="middle" x="566" y="-327.95" font-family="Segoe UI" font-size="14.00">dictateApp</text>
<text xml:space="preserve" text-anchor="middle" x="566" y="-308.45" font-family="Segoe UI" font-size="14.00">(Speech&#45;to&#45;Text)</text>
<text xml:space="preserve" text-anchor="middle" x="566" y="-288.95" font-family="Segoe UI" font-size="14.00">React</text>
</g>
<!-- Editor&#45;&gt;dictateApp -->
<g id="edge8" class="edge">
<title>Editor&#45;&gt;dictateApp</title>
<path fill="none" stroke="blue" stroke-dasharray="5,2" d="M289.5,-163.4C310.37,-165.86 338.22,-172.31 356.5,-189 365.64,-197.35 358.85,-205.27 366.5,-215 392.56,-248.15 406.99,-249.75 444.5,-269 460.62,-277.27 478.7,-284.64 495.86,-290.84"/>
<polygon fill="blue" stroke="blue" points="494.37,-294.02 504.97,-294.04 496.69,-287.42 494.37,-294.02"/>
<text xml:space="preserve" text-anchor="middle" x="396.5" y="-264.78" font-family="Segoe UI" font-size="10.00">postMessage</text>
</g>
<!-- Lists -->
<g id="node6" class="node">
<title>Lists</title>
<path fill="none" stroke="black" d="M275.25,-288C275.25,-288 245.25,-288 245.25,-288 239.25,-288 233.25,-282 233.25,-276 233.25,-276 233.25,-264 233.25,-264 233.25,-258 239.25,-252 245.25,-252 245.25,-252 275.25,-252 275.25,-252 281.25,-252 287.25,-258 287.25,-264 287.25,-264 287.25,-276 287.25,-276 287.25,-282 281.25,-288 275.25,-288"/>
<text xml:space="preserve" text-anchor="middle" x="260.25" y="-266.45" font-family="Segoe UI" font-size="14.00">lists/</text>
</g>
<!-- Views -->
<g id="node7" class="node">
<title>Views</title>
<path fill="none" stroke="black" d="M275.75,-342C275.75,-342 244.75,-342 244.75,-342 238.75,-342 232.75,-336 232.75,-330 232.75,-330 232.75,-318 232.75,-318 232.75,-312 238.75,-306 244.75,-306 244.75,-306 275.75,-306 275.75,-306 281.75,-306 287.75,-312 287.75,-318 287.75,-318 287.75,-330 287.75,-330 287.75,-336 281.75,-342 275.75,-342"/>
<text xml:space="preserve" text-anchor="middle" x="260.25" y="-320.45" font-family="Segoe UI" font-size="14.00">views/</text>
</g>
<!-- Media -->
<g id="node8" class="node">
<title>Media</title>
<path fill="none" stroke="black" d="M278,-396C278,-396 242.5,-396 242.5,-396 236.5,-396 230.5,-390 230.5,-384 230.5,-384 230.5,-372 230.5,-372 230.5,-366 236.5,-360 242.5,-360 242.5,-360 278,-360 278,-360 284,-360 290,-366 290,-372 290,-372 290,-384 290,-384 290,-390 284,-396 278,-396"/>
<text xml:space="preserve" text-anchor="middle" x="260.25" y="-374.45" font-family="Segoe UI" font-size="14.00">media/</text>
</g>
<!-- gifApp -->
<g id="node17" class="node">
<title>gifApp</title>
<path fill="none" stroke="black" d="M599.12,-430.25C599.12,-430.25 532.88,-430.25 532.88,-430.25 526.88,-430.25 520.88,-424.25 520.88,-418.25 520.88,-418.25 520.88,-375.75 520.88,-375.75 520.88,-369.75 526.88,-363.75 532.88,-363.75 532.88,-363.75 599.12,-363.75 599.12,-363.75 605.12,-363.75 611.12,-369.75 611.12,-375.75 611.12,-375.75 611.12,-418.25 611.12,-418.25 611.12,-424.25 605.12,-430.25 599.12,-430.25"/>
<text xml:space="preserve" text-anchor="middle" x="566" y="-412.95" font-family="Segoe UI" font-size="14.00">gifApp</text>
<text xml:space="preserve" text-anchor="middle" x="566" y="-393.45" font-family="Segoe UI" font-size="14.00">(GIF Search)</text>
<text xml:space="preserve" text-anchor="middle" x="566" y="-373.95" font-family="Segoe UI" font-size="14.00">React</text>
</g>
<!-- Media&#45;&gt;gifApp -->
<g id="edge9" class="edge">
<title>Media&#45;&gt;gifApp</title>
<path fill="none" stroke="blue" stroke-dasharray="5,2" d="M290.37,-379.82C340.73,-382.97 444.87,-389.49 509.45,-393.53"/>
<polygon fill="blue" stroke="blue" points="508.92,-397 519.12,-394.13 509.36,-390.01 508.92,-397"/>
<text xml:space="preserve" text-anchor="middle" x="396.5" y="-392.82" font-family="Segoe UI" font-size="10.00">postMessage</text>
</g>
<!-- Navigation -->
<g id="node9" class="node">
<title>Navigation</title>
<path fill="none" stroke="black" d="M291.5,-450C291.5,-450 229,-450 229,-450 223,-450 217,-444 217,-438 217,-438 217,-426 217,-426 217,-420 223,-414 229,-414 229,-414 291.5,-414 291.5,-414 297.5,-414 303.5,-420 303.5,-426 303.5,-426 303.5,-438 303.5,-438 303.5,-444 297.5,-450 291.5,-450"/>
<text xml:space="preserve" text-anchor="middle" x="260.25" y="-428.45" font-family="Segoe UI" font-size="14.00">navigation/</text>
</g>
<!-- Blocks -->
<g id="node10" class="node">
<title>Blocks</title>
<path fill="none" stroke="black" d="M278.75,-504C278.75,-504 241.75,-504 241.75,-504 235.75,-504 229.75,-498 229.75,-492 229.75,-492 229.75,-480 229.75,-480 229.75,-474 235.75,-468 241.75,-468 241.75,-468 278.75,-468 278.75,-468 284.75,-468 290.75,-474 290.75,-480 290.75,-480 290.75,-492 290.75,-492 290.75,-498 284.75,-504 278.75,-504"/>
<text xml:space="preserve" text-anchor="middle" x="260.25" y="-482.45" font-family="Segoe UI" font-size="14.00">blocks/</text>
</g>
<!-- Formatting -->
<g id="node11" class="node">
<title>Formatting</title>
<path fill="none" stroke="black" d="M291.5,-558C291.5,-558 229,-558 229,-558 223,-558 217,-552 217,-546 217,-546 217,-534 217,-534 217,-528 223,-522 229,-522 229,-522 291.5,-522 291.5,-522 297.5,-522 303.5,-528 303.5,-534 303.5,-534 303.5,-546 303.5,-546 303.5,-552 297.5,-558 291.5,-558"/>
<text xml:space="preserve" text-anchor="middle" x="260.25" y="-536.45" font-family="Segoe UI" font-size="14.00">formatting/</text>
</g>
<!-- Productivity -->
<g id="node12" class="node">
<title>Productivity</title>
<path fill="none" stroke="black" d="M296,-612C296,-612 224.5,-612 224.5,-612 218.5,-612 212.5,-606 212.5,-600 212.5,-600 212.5,-588 212.5,-588 212.5,-582 218.5,-576 224.5,-576 224.5,-576 296,-576 296,-576 302,-576 308,-582 308,-588 308,-588 308,-600 308,-600 308,-606 302,-612 296,-612"/>
<text xml:space="preserve" text-anchor="middle" x="260.25" y="-590.45" font-family="Segoe UI" font-size="14.00">productivity/</text>
</g>
</g>
</svg>
