<?xml version="1.0" encoding="UTF-8" standalone="no"?>
<!DOCTYPE svg PUBLIC "-//W3C//DTD SVG 1.1//EN"
 "http://www.w3.org/Graphics/SVG/1.1/DTD/svg11.dtd">
<!-- Generated by graphviz version 14.1.1 (20251213.1925)
 -->
<!-- Title: DataFlow Pages: 1 -->
<svg width="573pt" height="502pt"
 viewBox="0.00 0.00 573.00 502.00" xmlns="http://www.w3.org/2000/svg" xmlns:xlink="http://www.w3.org/1999/xlink">
<g id="graph0" class="graph" transform="scale(1 1) rotate(0) translate(4 497.5)">
<title>DataFlow</title>
<polygon fill="white" stroke="none" points="-4,4 -4,-497.5 569,-497.5 569,4 -4,4"/>
<g id="clust1" class="cluster">
<title>cluster_filesystem</title>
<polygon fill="#fff8e1" stroke="black" points="41,-398 41,-485.5 557,-485.5 557,-398 41,-398"/>
<text xml:space="preserve" text-anchor="middle" x="299" y="-468.2" font-family="Times New Roman,serif" font-size="14.00">Filesystem</text>
</g>
<g id="clust2" class="cluster">
<title>cluster_ext</title>
<polygon fill="#e8f4e8" stroke="black" points="55,-203 55,-363.5 253,-363.5 253,-203 55,-203"/>
<text xml:space="preserve" text-anchor="middle" x="154" y="-346.2" font-family="Times New Roman,serif" font-size="14.00">Extension Host</text>
</g>
<g id="clust3" class="cluster">
<title>cluster_web</title>
<polygon fill="#e8e8f4" stroke="black" points="8,-8 8,-168.5 331,-168.5 331,-8 8,-8"/>
<text xml:space="preserve" text-anchor="middle" x="169.5" y="-151.2" font-family="Times New Roman,serif" font-size="14.00">Webview</text>
</g>
<!-- indexMd -->
<g id="node1" class="node">
<title>indexMd</title>
<path fill="none" stroke="black" d="M170.88,-453C170.88,-453 61.12,-453 61.12,-453 55.12,-453 49.12,-447 49.12,-441 49.12,-441 49.12,-418 49.12,-418 49.12,-412 55.12,-406 61.12,-406 61.12,-406 170.88,-406 170.88,-406 176.88,-406 182.88,-412 182.88,-418 182.88,-418 182.88,-441 182.88,-441 182.88,-447 176.88,-453 170.88,-453"/>
<text xml:space="preserve" text-anchor="middle" x="116" y="-435.7" font-family="Segoe UI" font-size="14.00">database/index.md</text>
<text xml:space="preserve" text-anchor="middle" x="116" y="-416.2" font-family="Segoe UI" font-size="14.00">(schema + views)</text>
</g>
<!-- database -->
<g id="node4" class="node">
<title>database</title>
<path fill="none" stroke="black" d="M232.88,-331C232.88,-331 75.12,-331 75.12,-331 69.12,-331 63.12,-325 63.12,-319 63.12,-319 63.12,-296 63.12,-296 63.12,-290 69.12,-284 75.12,-284 75.12,-284 232.88,-284 232.88,-284 238.88,-284 244.88,-290 244.88,-296 244.88,-296 244.88,-319 244.88,-319 244.88,-325 238.88,-331 232.88,-331"/>
<text xml:space="preserve" text-anchor="middle" x="154" y="-313.7" font-family="Segoe UI" font-size="14.00">database.ts</text>
<text xml:space="preserve" text-anchor="middle" x="154" y="-294.2" font-family="Segoe UI" font-size="14.00">(parseSchema, readEntries)</text>
</g>
<!-- indexMd&#45;&gt;database -->
<g id="edge1" class="edge">
<title>indexMd&#45;&gt;database</title>
<path fill="none" stroke="black" d="M123.24,-405.65C128.92,-387.71 136.91,-362.48 143.32,-342.23"/>
<polygon fill="black" stroke="black" points="146.65,-343.3 146.33,-332.71 139.98,-341.19 146.65,-343.3"/>
<text xml:space="preserve" text-anchor="middle" x="145.49" y="-374.7" font-family="Times New Roman,serif" font-size="14.00">read</text>
</g>
<!-- entryMd -->
<g id="node2" class="node">
<title>entryMd</title>
<path fill="none" stroke="black" d="M349,-453C349,-453 213,-453 213,-453 207,-453 201,-447 201,-441 201,-441 201,-418 201,-418 201,-412 207,-406 213,-406 213,-406 349,-406 349,-406 355,-406 361,-412 361,-418 361,-418 361,-441 361,-441 361,-447 355,-453 349,-453"/>
<text xml:space="preserve" text-anchor="middle" x="281" y="-435.7" font-family="Segoe UI" font-size="14.00">entry/index.md</text>
<text xml:space="preserve" text-anchor="middle" x="281" y="-416.2" font-family="Segoe UI" font-size="14.00">(frontmatter + content)</text>
</g>
<!-- entryMd&#45;&gt;database -->
<g id="edge2" class="edge">
<title>entryMd&#45;&gt;database</title>
<path fill="none" stroke="black" d="M256.81,-405.65C236.86,-386.8 208.38,-359.88 186.45,-339.16"/>
<polygon fill="black" stroke="black" points="188.87,-336.63 179.2,-332.31 184.06,-341.72 188.87,-336.63"/>
<text xml:space="preserve" text-anchor="middle" x="247.92" y="-374.7" font-family="Times New Roman,serif" font-size="14.00">read</text>
</g>
<!-- rsrc -->
<g id="node3" class="node">
<title>rsrc</title>
<path fill="none" stroke="black" d="M537.25,-453C537.25,-453 390.75,-453 390.75,-453 384.75,-453 378.75,-447 378.75,-441 378.75,-441 378.75,-418 378.75,-418 378.75,-412 384.75,-406 390.75,-406 390.75,-406 537.25,-406 537.25,-406 543.25,-406 549.25,-412 549.25,-418 549.25,-418 549.25,-441 549.25,-441 549.25,-447 543.25,-453 537.25,-453"/>
<text xml:space="preserve" text-anchor="middle" x="464" y="-435.7" font-family="Segoe UI" font-size="14.00">.rsrc/</text>
<text xml:space="preserve" text-anchor="middle" x="464" y="-416.2" font-family="Segoe UI" font-size="14.00">(images, comments.json)</text>
</g>
<!-- dbWebview -->
<g id="node5" class="node">
<title>dbWebview</title>
<path fill="none" stroke="black" d="M213.12,-247C213.12,-247 134.88,-247 134.88,-247 128.88,-247 122.88,-241 122.88,-235 122.88,-235 122.88,-223 122.88,-223 122.88,-217 128.88,-211 134.88,-211 134.88,-211 213.12,-211 213.12,-211 219.12,-211 225.12,-217 225.12,-223 225.12,-223 225.12,-235 225.12,-235 225.12,-241 219.12,-247 213.12,-247"/>
<text xml:space="preserve" text-anchor="middle" x="174" y="-225.45" font-family="Segoe UI" font-size="14.00">dbWebview.ts</text>
</g>
<!-- database&#45;&gt;dbWebview -->
<g id="edge3" class="edge">
<title>database&#45;&gt;dbWebview</title>
<path fill="none" stroke="black" d="M160,-283.55C162.07,-275.65 164.4,-266.71 166.57,-258.43"/>
<polygon fill="black" stroke="black" points="169.94,-259.37 169.08,-248.81 163.17,-257.59 169.94,-259.37"/>
</g>
<!-- dbWebview&#45;&gt;entryMd -->
<g id="edge9" class="edge">
<title>dbWebview&#45;&gt;entryMd</title>
<path fill="none" stroke="black" stroke-dasharray="5,2" d="M212.1,-247.38C227.4,-256.23 243.79,-268.45 254,-284 275.79,-317.2 281.07,-363.43 281.85,-394.59"/>
<polygon fill="black" stroke="black" points="278.35,-394.25 281.95,-404.21 285.35,-394.18 278.35,-394.25"/>
<text xml:space="preserve" text-anchor="middle" x="293.41" y="-302.45" font-family="Times New Roman,serif" font-size="14.00">write</text>
</g>
<!-- App -->
<g id="node6" class="node">
<title>App</title>
<path fill="none" stroke="black" d="M191.88,-136C191.88,-136 124.12,-136 124.12,-136 118.12,-136 112.12,-130 112.12,-124 112.12,-124 112.12,-101 112.12,-101 112.12,-95 118.12,-89 124.12,-89 124.12,-89 191.88,-89 191.88,-89 197.88,-89 203.88,-95 203.88,-101 203.88,-101 203.88,-124 203.88,-124 203.88,-130 197.88,-136 191.88,-136"/>
<text xml:space="preserve" text-anchor="middle" x="158" y="-118.7" font-family="Segoe UI" font-size="14.00">App.tsx</text>
<text xml:space="preserve" text-anchor="middle" x="158" y="-99.2" font-family="Segoe UI" font-size="14.00">(React state)</text>
</g>
<!-- dbWebview&#45;&gt;App -->
<g id="edge4" class="edge">
<title>dbWebview&#45;&gt;App</title>
<path fill="none" stroke="black" d="M131.41,-210.54C124.64,-205.86 118.55,-200.07 114.5,-193 105.51,-177.28 113.4,-159.62 124.81,-144.95"/>
<polygon fill="black" stroke="black" points="127.43,-147.27 131.26,-137.39 122.1,-142.72 127.43,-147.27"/>
<text xml:space="preserve" text-anchor="middle" x="149.75" y="-179.7" font-family="Times New Roman,serif" font-size="14.00">postMessage</text>
</g>
<!-- App&#45;&gt;dbWebview -->
<g id="edge8" class="edge">
<title>App&#45;&gt;dbWebview</title>
<path fill="none" stroke="black" stroke-dasharray="5,2" d="M170.48,-136.4C176.12,-148.04 182.15,-162.63 185,-176.5 186.56,-184.11 185.87,-192.35 184.26,-199.95"/>
<polygon fill="black" stroke="black" points="180.94,-198.82 181.67,-209.39 187.69,-200.67 180.94,-198.82"/>
<text xml:space="preserve" text-anchor="middle" x="221.13" y="-179.7" font-family="Times New Roman,serif" font-size="14.00">postMessage</text>
</g>
<!-- TableView -->
<g id="node7" class="node">
<title>TableView</title>
<path fill="none" stroke="black" d="M82.12,-52C82.12,-52 27.88,-52 27.88,-52 21.88,-52 15.88,-46 15.88,-40 15.88,-40 15.88,-28 15.88,-28 15.88,-22 21.88,-16 27.88,-16 27.88,-16 82.12,-16 82.12,-16 88.12,-16 94.12,-22 94.12,-28 94.12,-28 94.12,-40 94.12,-40 94.12,-46 88.12,-52 82.12,-52"/>
<text xml:space="preserve" text-anchor="middle" x="55" y="-30.45" font-family="Segoe UI" font-size="14.00">TableView</text>
</g>
<!-- App&#45;&gt;TableView -->
<g id="edge5" class="edge">
<title>App&#45;&gt;TableView</title>
<path fill="none" stroke="black" d="M127.1,-88.55C114.51,-79.2 99.95,-68.39 87.23,-58.94"/>
<polygon fill="black" stroke="black" points="89.68,-56.4 79.56,-53.24 85.5,-62.02 89.68,-56.4"/>
</g>
<!-- KanbanView -->
<g id="node8" class="node">
<title>KanbanView</title>
<path fill="none" stroke="black" d="M192.25,-52C192.25,-52 123.75,-52 123.75,-52 117.75,-52 111.75,-46 111.75,-40 111.75,-40 111.75,-28 111.75,-28 111.75,-22 117.75,-16 123.75,-16 123.75,-16 192.25,-16 192.25,-16 198.25,-16 204.25,-22 204.25,-28 204.25,-28 204.25,-40 204.25,-40 204.25,-46 198.25,-52 192.25,-52"/>
<text xml:space="preserve" text-anchor="middle" x="158" y="-30.45" font-family="Segoe UI" font-size="14.00">KanbanView</text>
</g>
<!-- App&#45;&gt;KanbanView -->
<g id="edge6" class="edge">
<title>App&#45;&gt;KanbanView</title>
<path fill="none" stroke="black" d="M158,-88.55C158,-80.74 158,-71.92 158,-63.72"/>
<polygon fill="black" stroke="black" points="161.5,-63.85 158,-53.85 154.5,-63.85 161.5,-63.85"/>
</g>
<!-- CalendarView -->
<g id="node9" class="node">
<title>CalendarView</title>
<path fill="none" stroke="black" d="M311.38,-52C311.38,-52 234.62,-52 234.62,-52 228.62,-52 222.62,-46 222.62,-40 222.62,-40 222.62,-28 222.62,-28 222.62,-22 228.62,-16 234.62,-16 234.62,-16 311.38,-16 311.38,-16 317.38,-16 323.38,-22 323.38,-28 323.38,-28 323.38,-40 323.38,-40 323.38,-46 317.38,-52 311.38,-52"/>
<text xml:space="preserve" text-anchor="middle" x="273" y="-30.45" font-family="Segoe UI" font-size="14.00">CalendarView</text>
</g>
<!-- App&#45;&gt;CalendarView -->
<g id="edge7" class="edge">
<title>App&#45;&gt;CalendarView</title>
<path fill="none" stroke="black" d="M192.5,-88.55C206.7,-79.11 223.12,-68.18 237.42,-58.67"/>
<polygon fill="black" stroke="black" points="239.28,-61.63 245.67,-53.18 235.41,-55.8 239.28,-61.63"/>
</g>
</g>
</svg>
