<?xml version="1.0" encoding="UTF-8" standalone="no"?>
<!DOCTYPE svg PUBLIC "-//W3C//DTD SVG 1.1//EN"
 "http://www.w3.org/Graphics/SVG/1.1/DTD/svg11.dtd">
<!-- Generated by graphviz version 14.1.1 (20251213.1925)
 -->
<!-- Title: ExtensionModules Pages: 1 -->
<svg width="2002pt" height="103pt"
 viewBox="0.00 0.00 2002.00 103.00" xmlns="http://www.w3.org/2000/svg" xmlns:xlink="http://www.w3.org/1999/xlink">
<g id="graph0" class="graph" transform="scale(1 1) rotate(0) translate(4 98.5)">
<title>ExtensionModules</title>
<polygon fill="white" stroke="none" points="-4,4 -4,-98.5 1998,-98.5 1998,4 -4,4"/>
<g id="clust1" class="cluster">
<title>cluster_core</title>
<polygon fill="#fff3e0" stroke="black" points="8,-9 8,-85.5 419,-85.5 419,-9 8,-9"/>
<text xml:space="preserve" text-anchor="middle" x="213.5" y="-68.2" font-family="Times New Roman,serif" font-size="14.00">Core</text>
</g>
<g id="clust2" class="cluster">
<title>cluster_database</title>
<polygon fill="#e3f2fd" stroke="black" points="427,-8 427,-86.5 811,-86.5 811,-8 427,-8"/>
<text xml:space="preserve" text-anchor="middle" x="619" y="-69.2" font-family="Times New Roman,serif" font-size="14.00">Database</text>
</g>
<g id="clust3" class="cluster">
<title>cluster_editor</title>
<polygon fill="#f3e5f5" stroke="black" points="819,-9 819,-85.5 1265,-85.5 1265,-9 819,-9"/>
<text xml:space="preserve" text-anchor="middle" x="1042" y="-68.2" font-family="Times New Roman,serif" font-size="14.00">Editor</text>
</g>
<g id="clust4" class="cluster">
<title>cluster_links</title>
<polygon fill="#e8f5e9" stroke="black" points="1273,-9 1273,-85.5 1667,-85.5 1667,-9 1273,-9"/>
<text xml:space="preserve" text-anchor="middle" x="1470" y="-68.2" font-family="Times New Roman,serif" font-size="14.00">Links</text>
</g>
<g id="clust5" class="cluster">
<title>cluster_views</title>
<polygon fill="#fce4ec" stroke="black" points="1675,-8 1675,-86.5 1986,-86.5 1986,-8 1675,-8"/>
<text xml:space="preserve" text-anchor="middle" x="1830.5" y="-69.2" font-family="Times New Roman,serif" font-size="14.00">Views</text>
</g>
<!-- cwd -->
<g id="node1" class="node">
<title>cwd</title>
<path fill="none" stroke="black" d="M58,-53C58,-53 28,-53 28,-53 22,-53 16,-47 16,-41 16,-41 16,-29 16,-29 16,-23 22,-17 28,-17 28,-17 58,-17 58,-17 64,-17 70,-23 70,-29 70,-29 70,-41 70,-41 70,-47 64,-53 58,-53"/>
<text xml:space="preserve" text-anchor="middle" x="43" y="-32.05" font-family="Segoe UI" font-size="11.00">cwd.ts</text>
</g>
<!-- webviewShell -->
<g id="node2" class="node">
<title>webviewShell</title>
<path fill="none" stroke="black" d="M170,-53C170,-53 100,-53 100,-53 94,-53 88,-47 88,-41 88,-41 88,-29 88,-29 88,-23 94,-17 100,-17 100,-17 170,-17 170,-17 176,-17 182,-23 182,-29 182,-29 182,-41 182,-41 182,-47 176,-53 170,-53"/>
<text xml:space="preserve" text-anchor="middle" x="135" y="-32.05" font-family="Segoe UI" font-size="11.00">webviewShell.ts</text>
</g>
<!-- slashCommands -->
<g id="node3" class="node">
<title>slashCommands</title>
<path fill="none" stroke="black" d="M293.62,-53C293.62,-53 212.38,-53 212.38,-53 206.38,-53 200.38,-47 200.38,-41 200.38,-41 200.38,-29 200.38,-29 200.38,-23 206.38,-17 212.38,-17 212.38,-17 293.62,-17 293.62,-17 299.62,-17 305.62,-23 305.62,-29 305.62,-29 305.62,-41 305.62,-41 305.62,-47 299.62,-53 293.62,-53"/>
<text xml:space="preserve" text-anchor="middle" x="253" y="-32.05" font-family="Segoe UI" font-size="11.00">slashCommands.ts</text>
</g>
<!-- structureLint -->
<g id="node4" class="node">
<title>structureLint</title>
<path fill="none" stroke="black" d="M398.62,-53C398.62,-53 335.38,-53 335.38,-53 329.38,-53 323.38,-47 323.38,-41 323.38,-41 323.38,-29 323.38,-29 323.38,-23 329.38,-17 335.38,-17 335.38,-17 398.62,-17 398.62,-17 404.62,-17 410.62,-23 410.62,-29 410.62,-29 410.62,-41 410.62,-41 410.62,-47 404.62,-53 398.62,-53"/>
<text xml:space="preserve" text-anchor="middle" x="367" y="-32.05" font-family="Segoe UI" font-size="11.00">structureLint.ts</text>
</g>
<!-- database -->
<g id="node5" class="node">
<title>database</title>
<path fill="none" stroke="black" d="M550.88,-54C550.88,-54 447.12,-54 447.12,-54 441.12,-54 435.12,-48 435.12,-42 435.12,-42 435.12,-28 435.12,-28 435.12,-22 441.12,-16 447.12,-16 447.12,-16 550.88,-16 550.88,-16 556.88,-16 562.88,-22 562.88,-28 562.88,-28 562.88,-42 562.88,-42 562.88,-48 556.88,-54 550.88,-54"/>
<text xml:space="preserve" text-anchor="middle" x="499" y="-39.55" font-family="Segoe UI" font-size="11.00">database.ts</text>
<text xml:space="preserve" text-anchor="middle" x="499" y="-24.55" font-family="Segoe UI" font-size="11.00">(Schema/Entry parsing)</text>
</g>
<!-- dbWebview -->
<g id="node6" class="node">
<title>dbWebview</title>
<path fill="none" stroke="black" d="M684.88,-54C684.88,-54 593.12,-54 593.12,-54 587.12,-54 581.12,-48 581.12,-42 581.12,-42 581.12,-28 581.12,-28 581.12,-22 587.12,-16 593.12,-16 593.12,-16 684.88,-16 684.88,-16 690.88,-16 696.88,-22 696.88,-28 696.88,-28 696.88,-42 696.88,-42 696.88,-48 690.88,-54 684.88,-54"/>
<text xml:space="preserve" text-anchor="middle" x="639" y="-39.55" font-family="Segoe UI" font-size="11.00">dbWebview.ts</text>
<text xml:space="preserve" text-anchor="middle" x="639" y="-24.55" font-family="Segoe UI" font-size="11.00">(Panel management)</text>
</g>
<!-- dbCodeLens -->
<g id="node7" class="node">
<title>dbCodeLens</title>
<path fill="none" stroke="black" d="M791,-53C791,-53 727,-53 727,-53 721,-53 715,-47 715,-41 715,-41 715,-29 715,-29 715,-23 721,-17 727,-17 727,-17 791,-17 791,-17 797,-17 803,-23 803,-29 803,-29 803,-41 803,-41 803,-47 797,-53 791,-53"/>
<text xml:space="preserve" text-anchor="middle" x="759" y="-32.05" font-family="Segoe UI" font-size="11.00">dbCodeLens.ts</text>
</g>
<!-- comments -->
<g id="node8" class="node">
<title>comments</title>
<path fill="none" stroke="black" d="M893.12,-53C893.12,-53 838.88,-53 838.88,-53 832.88,-53 826.88,-47 826.88,-41 826.88,-41 826.88,-29 826.88,-29 826.88,-23 832.88,-17 838.88,-17 838.88,-17 893.12,-17 893.12,-17 899.12,-17 905.12,-23 905.12,-29 905.12,-29 905.12,-41 905.12,-41 905.12,-47 899.12,-53 893.12,-53"/>
<text xml:space="preserve" text-anchor="middle" x="866" y="-32.05" font-family="Segoe UI" font-size="11.00">comments.ts</text>
</g>
<!-- date -->
<g id="node9" class="node">
<title>date</title>
<path fill="none" stroke="black" d="M965,-53C965,-53 935,-53 935,-53 929,-53 923,-47 923,-41 923,-41 923,-29 923,-29 923,-23 929,-17 935,-17 935,-17 965,-17 965,-17 971,-17 977,-23 977,-29 977,-29 977,-41 977,-41 977,-47 971,-53 965,-53"/>
<text xml:space="preserve" text-anchor="middle" x="950" y="-32.05" font-family="Segoe UI" font-size="11.00">date.ts</text>
</g>
<!-- frontmatter -->
<g id="node10" class="node">
<title>frontmatter</title>
<path fill="none" stroke="black" d="M1095,-53C1095,-53 1007,-53 1007,-53 1001,-53 995,-47 995,-41 995,-41 995,-29 995,-29 995,-23 1001,-17 1007,-17 1007,-17 1095,-17 1095,-17 1101,-17 1107,-23 1107,-29 1107,-29 1107,-41 1107,-41 1107,-47 1101,-53 1095,-53"/>
<text xml:space="preserve" text-anchor="middle" x="1051" y="-32.05" font-family="Segoe UI" font-size="11.00">frontmatterEditor.ts</text>
</g>
<!-- callout -->
<g id="node11" class="node">
<title>callout</title>
<path fill="none" stroke="black" d="M1172.75,-53C1172.75,-53 1137.25,-53 1137.25,-53 1131.25,-53 1125.25,-47 1125.25,-41 1125.25,-41 1125.25,-29 1125.25,-29 1125.25,-23 1131.25,-17 1137.25,-17 1137.25,-17 1172.75,-17 1172.75,-17 1178.75,-17 1184.75,-23 1184.75,-29 1184.75,-29 1184.75,-41 1184.75,-41 1184.75,-47 1178.75,-53 1172.75,-53"/>
<text xml:space="preserve" text-anchor="middle" x="1155" y="-32.05" font-family="Segoe UI" font-size="11.00">callout.ts</text>
</g>
<!-- table -->
<g id="node12" class="node">
<title>table</title>
<path fill="none" stroke="black" d="M1245,-53C1245,-53 1215,-53 1215,-53 1209,-53 1203,-47 1203,-41 1203,-41 1203,-29 1203,-29 1203,-23 1209,-17 1215,-17 1215,-17 1245,-17 1245,-17 1251,-17 1257,-23 1257,-29 1257,-29 1257,-41 1257,-41 1257,-47 1251,-53 1245,-53"/>
<text xml:space="preserve" text-anchor="middle" x="1230" y="-32.05" font-family="Segoe UI" font-size="11.00">table.ts</text>
</g>
<!-- backlinks -->
<g id="node13" class="node">
<title>backlinks</title>
<path fill="none" stroke="black" d="M1339.38,-53C1339.38,-53 1292.62,-53 1292.62,-53 1286.62,-53 1280.62,-47 1280.62,-41 1280.62,-41 1280.62,-29 1280.62,-29 1280.62,-23 1286.62,-17 1292.62,-17 1292.62,-17 1339.38,-17 1339.38,-17 1345.38,-17 1351.38,-23 1351.38,-29 1351.38,-29 1351.38,-41 1351.38,-41 1351.38,-47 1345.38,-53 1339.38,-53"/>
<text xml:space="preserve" text-anchor="middle" x="1316" y="-32.05" font-family="Segoe UI" font-size="11.00">backlinks.ts</text>
</g>
<!-- linkComplete -->
<g id="node14" class="node">
<title>linkComplete</title>
<path fill="none" stroke="black" d="M1450.25,-53C1450.25,-53 1381.75,-53 1381.75,-53 1375.75,-53 1369.75,-47 1369.75,-41 1369.75,-41 1369.75,-29 1369.75,-29 1369.75,-23 1375.75,-17 1381.75,-17 1381.75,-17 1450.25,-17 1450.25,-17 1456.25,-17 1462.25,-23 1462.25,-29 1462.25,-29 1462.25,-41 1462.25,-41 1462.25,-47 1456.25,-53 1450.25,-53"/>
<text xml:space="preserve" text-anchor="middle" x="1416" y="-32.05" font-family="Segoe UI" font-size="11.00">linkComplete.ts</text>
</g>
<!-- linkHover -->
<g id="node15" class="node">
<title>linkHover</title>
<path fill="none" stroke="black" d="M1541.5,-53C1541.5,-53 1492.5,-53 1492.5,-53 1486.5,-53 1480.5,-47 1480.5,-41 1480.5,-41 1480.5,-29 1480.5,-29 1480.5,-23 1486.5,-17 1492.5,-17 1492.5,-17 1541.5,-17 1541.5,-17 1547.5,-17 1553.5,-23 1553.5,-29 1553.5,-29 1553.5,-41 1553.5,-41 1553.5,-47 1547.5,-53 1541.5,-53"/>
<text xml:space="preserve" text-anchor="middle" x="1517" y="-32.05" font-family="Segoe UI" font-size="11.00">linkHover.ts</text>
</g>
<!-- linkValidator -->
<g id="node16" class="node">
<title>linkValidator</title>
<path fill="none" stroke="black" d="M1646.62,-53C1646.62,-53 1583.38,-53 1583.38,-53 1577.38,-53 1571.38,-47 1571.38,-41 1571.38,-41 1571.38,-29 1571.38,-29 1571.38,-23 1577.38,-17 1583.38,-17 1583.38,-17 1646.62,-17 1646.62,-17 1652.62,-17 1658.62,-23 1658.62,-29 1658.62,-29 1658.62,-41 1658.62,-41 1658.62,-47 1652.62,-53 1646.62,-53"/>
<text xml:space="preserve" text-anchor="middle" x="1615" y="-32.05" font-family="Segoe UI" font-size="11.00">linkValidator.ts</text>
</g>
<!-- outline -->
<g id="node17" class="node">
<title>outline</title>
<path fill="none" stroke="black" d="M1776.62,-54C1776.62,-54 1695.38,-54 1695.38,-54 1689.38,-54 1683.38,-48 1683.38,-42 1683.38,-42 1683.38,-28 1683.38,-28 1683.38,-22 1689.38,-16 1695.38,-16 1695.38,-16 1776.62,-16 1776.62,-16 1782.62,-16 1788.62,-22 1788.62,-28 1788.62,-28 1788.62,-42 1788.62,-42 1788.62,-48 1782.62,-54 1776.62,-54"/>
<text xml:space="preserve" text-anchor="middle" x="1736" y="-39.55" font-family="Segoe UI" font-size="11.00">outline.ts</text>
<text xml:space="preserve" text-anchor="middle" x="1736" y="-24.55" font-family="Segoe UI" font-size="11.00">(TreeDataProvider)</text>
</g>
<!-- wordCount -->
<g id="node18" class="node">
<title>wordCount</title>
<path fill="none" stroke="black" d="M1875.62,-53C1875.62,-53 1818.38,-53 1818.38,-53 1812.38,-53 1806.38,-47 1806.38,-41 1806.38,-41 1806.38,-29 1806.38,-29 1806.38,-23 1812.38,-17 1818.38,-17 1818.38,-17 1875.62,-17 1875.62,-17 1881.62,-17 1887.62,-23 1887.62,-29 1887.62,-29 1887.62,-41 1887.62,-41 1887.62,-47 1881.62,-53 1875.62,-53"/>
<text xml:space="preserve" text-anchor="middle" x="1847" y="-32.05" font-family="Segoe UI" font-size="11.00">wordCount.ts</text>
</g>
<!-- pageIcon -->
<g id="node19" class="node">
<title>pageIcon</title>
<path fill="none" stroke="black" d="M1966.12,-53C1966.12,-53 1917.88,-53 1917.88,-53 1911.88,-53 1905.88,-47 1905.88,-41 1905.88,-41 1905.88,-29 1905.88,-29 1905.88,-23 1911.88,-17 1917.88,-17 1917.88,-17 1966.12,-17 1966.12,-17 1972.12,-17 1978.12,-23 1978.12,-29 1978.12,-29 1978.12,-41 1978.12,-41 1978.12,-47 1972.12,-53 1966.12,-53"/>
<text xml:space="preserve" text-anchor="middle" x="1942" y="-32.05" font-family="Segoe UI" font-size="11.00">pageIcon.ts</text>
</g>
</g>
</svg>
