<?xml version="1.0" encoding="UTF-8" standalone="no"?>
<!DOCTYPE svg PUBLIC "-//W3C//DTD SVG 1.1//EN"
 "http://www.w3.org/Graphics/SVG/1.1/DTD/svg11.dtd">
<!-- Generated by graphviz version 14.1.1 (20251213.1925)
 -->
<!-- Title: PostMessage Pages: 1 -->
<svg width="383pt" height="168pt"
 viewBox="0.00 0.00 383.00 168.00" xmlns="http://www.w3.org/2000/svg" xmlns:xlink="http://www.w3.org/1999/xlink">
<g id="graph0" class="graph" transform="scale(1 1) rotate(0) translate(4 163.63)">
<title>PostMessage</title>
<polygon fill="white" stroke="none" points="-4,4 -4,-163.63 379.25,-163.63 379.25,4 -4,4"/>
<g id="clust1" class="cluster">
<title>cluster_host</title>
<polygon fill="#e8f4e8" stroke="black" points="8,-51.91 8,-128.91 126.25,-128.91 126.25,-51.91 8,-51.91"/>
<text xml:space="preserve" text-anchor="middle" x="67.12" y="-111.61" font-family="Times New Roman,serif" font-size="14.00">Extension Host</text>
</g>
<g id="clust2" class="cluster">
<title>cluster_webview</title>
<polygon fill="#e8e8f4" stroke="black" points="258.75,-51.91 258.75,-128.91 375.25,-128.91 375.25,-51.91 258.75,-51.91"/>
<text xml:space="preserve" text-anchor="middle" x="317" y="-111.61" font-family="Times New Roman,serif" font-size="14.00">Webview (dbApp)</text>
</g>
<!-- dbWebview -->
<g id="node1" class="node">
<title>dbWebview</title>
<polygon fill="none" stroke="black" points="118.25,-95.91 16,-95.91 16,-59.91 118.25,-59.91 118.25,-95.91"/>
<text xml:space="preserve" text-anchor="middle" x="67.12" y="-74.36" font-family="Segoe UI" font-size="14.00">dbWebview.ts</text>
</g>
<!-- App -->
<g id="node2" class="node">
<title>App</title>
<polygon fill="none" stroke="black" points="347.38,-95.91 285.62,-95.91 285.62,-59.91 347.38,-59.91 347.38,-95.91"/>
<text xml:space="preserve" text-anchor="middle" x="316.5" y="-74.36" font-family="Segoe UI" font-size="14.00">App.tsx</text>
</g>
<!-- dbWebview&#45;&gt;App -->
<g id="edge1" class="edge">
<title>dbWebview&#45;&gt;App</title>
<path fill="none" stroke="blue" d="M92.94,-96.29C105.29,-104.31 120.84,-112.81 136.25,-116.91 184.57,-129.76 200.49,-129.98 248.75,-116.91 260.12,-113.83 271.54,-108.28 281.63,-102.32"/>
<polygon fill="blue" stroke="blue" points="283.35,-105.37 289.96,-97.09 279.63,-99.45 283.35,-105.37"/>
<text xml:space="preserve" text-anchor="middle" x="192.5" y="-146.33" font-family="Times New Roman,serif" font-size="14.00" fill="blue">init</text>
<text xml:space="preserve" text-anchor="middle" x="192.5" y="-129.83" font-family="Times New Roman,serif" font-size="14.00" fill="blue">updateEntries</text>
</g>
<!-- App&#45;&gt;dbWebview -->
<g id="edge2" class="edge">
<title>App&#45;&gt;dbWebview</title>
<path fill="none" stroke="green" d="M302.85,-59.62C290.93,-44.14 271.54,-23.07 248.75,-13.91 202.36,4.74 182.74,4.5 136.25,-13.91 117.31,-21.41 100.57,-36.94 88.42,-50.82"/>
<polygon fill="green" stroke="green" points="85.79,-48.51 82.09,-58.44 91.17,-52.99 85.79,-48.51"/>
<text xml:space="preserve" text-anchor="middle" x="192.5" y="-99.61" font-family="Times New Roman,serif" font-size="14.00" fill="green">ready</text>
<text xml:space="preserve" text-anchor="middle" x="192.5" y="-83.11" font-family="Times New Roman,serif" font-size="14.00" fill="green">openEntry</text>
<text xml:space="preserve" text-anchor="middle" x="192.5" y="-66.61" font-family="Times New Roman,serif" font-size="14.00" fill="green">addEntry</text>
<text xml:space="preserve" text-anchor="middle" x="192.5" y="-50.11" font-family="Times New Roman,serif" font-size="14.00" fill="green">refresh</text>
<text xml:space="preserve" text-anchor="middle" x="192.5" y="-33.61" font-family="Times New Roman,serif" font-size="14.00" fill="green">updateEntryProperty</text>
<text xml:space="preserve" text-anchor="middle" x="192.5" y="-17.11" font-family="Times New Roman,serif" font-size="14.00" fill="green">promptSaveView</text>
</g>
</g>
</svg>
