<?xml version="1.0" encoding="UTF-8" standalone="no"?>
<!DOCTYPE svg PUBLIC "-//W3C//DTD SVG 1.1//EN"
 "http://www.w3.org/Graphics/SVG/1.1/DTD/svg11.dtd">
<!-- Generated by graphviz version 14.1.1 (20251213.1925)
 -->
<!-- Title: WebviewApps Pages: 1 -->
<svg width="640pt" height="437pt"
 viewBox="0.00 0.00 640.00 437.00" xmlns="http://www.w3.org/2000/svg" xmlns:xlink="http://www.w3.org/1999/xlink">
<g id="graph0" class="graph" transform="scale(1 1) rotate(0) translate(4 433)">
<title>WebviewApps</title>
<polygon fill="white" stroke="none" points="-4,4 -4,-433 636.38,-433 636.38,4 -4,4"/>
<g id="clust1" class="cluster">
<title>cluster_webview</title>
<polygon fill="#e8f4fc" stroke="black" points="271.88,-8 271.88,-421 624.38,-421 624.38,-8 271.88,-8"/>
<text xml:space="preserve" text-anchor="middle" x="448.13" y="-403.7" font-family="Times New Roman,serif" font-size="14.00">src/webview/</text>
</g>
<g id="clust2" class="cluster">
<title>cluster_components</title>
<polygon fill="#e8f4fc" stroke="black" points="468.88,-41 468.88,-388 616.38,-388 616.38,-41 468.88,-41"/>
<text xml:space="preserve" text-anchor="middle" x="542.63" y="-370.7" font-family="Times New Roman,serif" font-size="14.00">components/</text>
</g>
<!-- esbuild -->
<g id="node1" class="node">
<title>esbuild</title>
<ellipse fill="none" stroke="black" cx="100.94" cy="-142" rx="100.94" ry="19.45"/>
<text xml:space="preserve" text-anchor="middle" x="100.94" y="-138.45" font-family="Segoe UI" font-size="14.00">esbuild.webview.mjs</text>
</g>
<!-- dbApp -->
<g id="node2" class="node">
<title>dbApp</title>
<path fill="none" stroke="black" d="M387,-268C387,-268 332.75,-268 332.75,-268 326.75,-268 320.75,-262 320.75,-256 320.75,-256 320.75,-244 320.75,-244 320.75,-238 326.75,-232 332.75,-232 332.75,-232 387,-232 387,-232 393,-232 399,-238 399,-244 399,-244 399,-256 399,-256 399,-262 393,-268 387,-268"/>
<text xml:space="preserve" text-anchor="middle" x="359.88" y="-246.45" font-family="Segoe UI" font-size="14.00">dbApp.tsx</text>
</g>
<!-- esbuild&#45;&gt;dbApp -->
<g id="edge1" class="edge">
<title>esbuild&#45;&gt;dbApp</title>
<path fill="none" stroke="black" d="M137.09,-160.59C171,-178.08 224.09,-204.31 271.88,-223 283.95,-227.72 297.22,-232.19 309.67,-236.08"/>
<polygon fill="black" stroke="black" points="308.32,-239.33 318.91,-238.9 310.36,-232.63 308.32,-239.33"/>
<text xml:space="preserve" text-anchor="middle" x="240.88" y="-220.51" font-family="Times New Roman,serif" font-size="14.00">bundles</text>
</g>
<!-- commentApp -->
<g id="node3" class="node">
<title>commentApp</title>
<path fill="none" stroke="black" d="M408.38,-214C408.38,-214 311.38,-214 311.38,-214 305.38,-214 299.38,-208 299.38,-202 299.38,-202 299.38,-190 299.38,-190 299.38,-184 305.38,-178 311.38,-178 311.38,-178 408.38,-178 408.38,-178 414.38,-178 420.38,-184 420.38,-190 420.38,-190 420.38,-202 420.38,-202 420.38,-208 414.38,-214 408.38,-214"/>
<text xml:space="preserve" text-anchor="middle" x="359.88" y="-192.45" font-family="Segoe UI" font-size="14.00">commentApp.tsx</text>
</g>
<!-- esbuild&#45;&gt;commentApp -->
<g id="edge2" class="edge">
<title>esbuild&#45;&gt;commentApp</title>
<path fill="none" stroke="black" d="M170.46,-156.4C206.83,-164.04 251.47,-173.43 288.17,-181.14"/>
<polygon fill="black" stroke="black" points="287.3,-184.53 297.81,-183.17 288.74,-177.68 287.3,-184.53"/>
</g>
<!-- dateApp -->
<g id="node4" class="node">
<title>dateApp</title>
<path fill="none" stroke="black" d="M392.25,-160C392.25,-160 327.5,-160 327.5,-160 321.5,-160 315.5,-154 315.5,-148 315.5,-148 315.5,-136 315.5,-136 315.5,-130 321.5,-124 327.5,-124 327.5,-124 392.25,-124 392.25,-124 398.25,-124 404.25,-130 404.25,-136 404.25,-136 404.25,-148 404.25,-148 404.25,-154 398.25,-160 392.25,-160"/>
<text xml:space="preserve" text-anchor="middle" x="359.88" y="-138.45" font-family="Segoe UI" font-size="14.00">dateApp.tsx</text>
</g>
<!-- esbuild&#45;&gt;dateApp -->
<g id="edge3" class="edge">
<title>esbuild&#45;&gt;dateApp</title>
<path fill="none" stroke="black" d="M202.01,-142C236.6,-142 274.07,-142 303.71,-142"/>
<polygon fill="black" stroke="black" points="303.57,-145.5 313.57,-142 303.57,-138.5 303.57,-145.5"/>
</g>
<!-- dictateApp -->
<g id="node5" class="node">
<title>dictateApp</title>
<path fill="none" stroke="black" d="M399.75,-106C399.75,-106 320,-106 320,-106 314,-106 308,-100 308,-94 308,-94 308,-82 308,-82 308,-76 314,-70 320,-70 320,-70 399.75,-70 399.75,-70 405.75,-70 411.75,-76 411.75,-82 411.75,-82 411.75,-94 411.75,-94 411.75,-100 405.75,-106 399.75,-106"/>
<text xml:space="preserve" text-anchor="middle" x="359.88" y="-84.45" font-family="Segoe UI" font-size="14.00">dictateApp.tsx</text>
</g>
<!-- esbuild&#45;&gt;dictateApp -->
<g id="edge4" class="edge">
<title>esbuild&#45;&gt;dictateApp</title>
<path fill="none" stroke="black" d="M170.46,-127.6C209.7,-119.35 258.55,-109.09 296.68,-101.07"/>
<polygon fill="black" stroke="black" points="297.09,-104.56 306.16,-99.08 295.65,-97.71 297.09,-104.56"/>
</g>
<!-- gifApp -->
<g id="node6" class="node">
<title>gifApp</title>
<path fill="none" stroke="black" d="M387,-52C387,-52 332.75,-52 332.75,-52 326.75,-52 320.75,-46 320.75,-40 320.75,-40 320.75,-28 320.75,-28 320.75,-22 326.75,-16 332.75,-16 332.75,-16 387,-16 387,-16 393,-16 399,-22 399,-28 399,-28 399,-40 399,-40 399,-46 393,-52 387,-52"/>
<text xml:space="preserve" text-anchor="middle" x="359.88" y="-30.45" font-family="Segoe UI" font-size="14.00">gifApp.tsx</text>
</g>
<!-- esbuild&#45;&gt;gifApp -->
<g id="edge5" class="edge">
<title>esbuild&#45;&gt;gifApp</title>
<path fill="none" stroke="black" d="M137.09,-123.41C171,-105.92 224.09,-79.69 271.88,-61 283.95,-56.28 297.22,-51.81 309.67,-47.92"/>
<polygon fill="black" stroke="black" points="310.36,-51.37 318.91,-45.1 308.32,-44.67 310.36,-51.37"/>
</g>
<!-- TableView -->
<g id="node7" class="node">
<title>TableView</title>
<path fill="none" stroke="black" d="M579.88,-85C579.88,-85 505.38,-85 505.38,-85 499.38,-85 493.38,-79 493.38,-73 493.38,-73 493.38,-61 493.38,-61 493.38,-55 499.38,-49 505.38,-49 505.38,-49 579.88,-49 579.88,-49 585.88,-49 591.88,-55 591.88,-61 591.88,-61 591.88,-73 591.88,-73 591.88,-79 585.88,-85 579.88,-85"/>
<text xml:space="preserve" text-anchor="middle" x="542.63" y="-63.45" font-family="Segoe UI" font-size="14.00">TableView.tsx</text>
</g>
<!-- dbApp&#45;&gt;TableView -->
<g id="edge6" class="edge">
<title>dbApp&#45;&gt;TableView</title>
<path fill="none" stroke="black" d="M399.49,-244.94C414.02,-241.15 429.52,-234.54 439.88,-223 479.12,-179.26 430.21,-138.25 468.88,-94 472.92,-89.37 477.84,-85.54 483.18,-82.36"/>
<polygon fill="black" stroke="black" points="484.47,-85.63 491.82,-78 481.32,-79.38 484.47,-85.63"/>
</g>
<!-- KanbanView -->
<g id="node8" class="node">
<title>KanbanView</title>
<path fill="none" stroke="black" d="M587,-139C587,-139 498.25,-139 498.25,-139 492.25,-139 486.25,-133 486.25,-127 486.25,-127 486.25,-115 486.25,-115 486.25,-109 492.25,-103 498.25,-103 498.25,-103 587,-103 587,-103 593,-103 599,-109 599,-115 599,-115 599,-127 599,-127 599,-133 593,-139 587,-139"/>
<text xml:space="preserve" text-anchor="middle" x="542.63" y="-117.45" font-family="Segoe UI" font-size="14.00">KanbanView.tsx</text>
</g>
<!-- dbApp&#45;&gt;KanbanView -->
<g id="edge7" class="edge">
<title>dbApp&#45;&gt;KanbanView</title>
<path fill="none" stroke="black" d="M399.46,-243.91C413.64,-239.98 428.91,-233.55 439.88,-223 465.65,-198.23 443.44,-173.1 468.88,-148 471.1,-145.81 473.5,-143.8 476.05,-141.95"/>
<polygon fill="black" stroke="black" points="477.84,-144.96 484.51,-136.73 474.17,-139 477.84,-144.96"/>
</g>
<!-- CalendarView -->
<g id="node9" class="node">
<title>CalendarView</title>
<path fill="none" stroke="black" d="M591.13,-193C591.13,-193 494.13,-193 494.13,-193 488.13,-193 482.13,-187 482.13,-181 482.13,-181 482.13,-169 482.13,-169 482.13,-163 488.13,-157 494.13,-157 494.13,-157 591.13,-157 591.13,-157 597.13,-157 603.13,-163 603.13,-169 603.13,-169 603.13,-181 603.13,-181 603.13,-187 597.13,-193 591.13,-193"/>
<text xml:space="preserve" text-anchor="middle" x="542.63" y="-171.45" font-family="Segoe UI" font-size="14.00">CalendarView.tsx</text>
</g>
<!-- dbApp&#45;&gt;CalendarView -->
<g id="edge8" class="edge">
<title>dbApp&#45;&gt;CalendarView</title>
<path fill="none" stroke="black" d="M399.2,-239.44C412.44,-235.13 427.14,-229.6 439.88,-223 454.01,-215.68 454.85,-209.5 468.88,-202 471.37,-200.67 473.95,-199.37 476.57,-198.11"/>
<polygon fill="black" stroke="black" points="477.82,-201.39 485.51,-194.09 474.95,-195 477.82,-201.39"/>
</g>
<!-- FilterBar -->
<g id="node10" class="node">
<title>FilterBar</title>
<path fill="none" stroke="black" d="M573.88,-247C573.88,-247 511.38,-247 511.38,-247 505.38,-247 499.38,-241 499.38,-235 499.38,-235 499.38,-223 499.38,-223 499.38,-217 505.38,-211 511.38,-211 511.38,-211 573.88,-211 573.88,-211 579.88,-211 585.88,-217 585.88,-223 585.88,-223 585.88,-235 585.88,-235 585.88,-241 579.88,-247 573.88,-247"/>
<text xml:space="preserve" text-anchor="middle" x="542.63" y="-225.45" font-family="Segoe UI" font-size="14.00">FilterBar.tsx</text>
</g>
<!-- dbApp&#45;&gt;FilterBar -->
<g id="edge9" class="edge">
<title>dbApp&#45;&gt;FilterBar</title>
<path fill="none" stroke="black" d="M399.21,-245.55C424.9,-242.56 459.09,-238.59 487.53,-235.29"/>
<polygon fill="black" stroke="black" points="487.89,-238.77 497.42,-234.14 487.08,-231.81 487.89,-238.77"/>
</g>
<!-- CommentPanel -->
<g id="node11" class="node">
<title>CommentPanel</title>
<path fill="none" stroke="black" d="M596.38,-301C596.38,-301 488.88,-301 488.88,-301 482.88,-301 476.88,-295 476.88,-289 476.88,-289 476.88,-277 476.88,-277 476.88,-271 482.88,-265 488.88,-265 488.88,-265 596.38,-265 596.38,-265 602.38,-265 608.38,-271 608.38,-277 608.38,-277 608.38,-289 608.38,-289 608.38,-295 602.38,-301 596.38,-301"/>
<text xml:space="preserve" text-anchor="middle" x="542.63" y="-279.45" font-family="Segoe UI" font-size="14.00">CommentPanel.tsx</text>
</g>
<!-- DatePicker -->
<g id="node12" class="node">
<title>DatePicker</title>
<path fill="none" stroke="black" d="M581.38,-355C581.38,-355 503.88,-355 503.88,-355 497.88,-355 491.88,-349 491.88,-343 491.88,-343 491.88,-331 491.88,-331 491.88,-325 497.88,-319 503.88,-319 503.88,-319 581.38,-319 581.38,-319 587.38,-319 593.38,-325 593.38,-331 593.38,-331 593.38,-343 593.38,-343 593.38,-349 587.38,-355 581.38,-355"/>
<text xml:space="preserve" text-anchor="middle" x="542.63" y="-333.45" font-family="Segoe UI" font-size="14.00">DatePicker.tsx</text>
</g>
<!-- helpers -->
<g id="node13" class="node">
<title>helpers</title>
<path fill="none" stroke="black" d="M427.88,-333.5C427.88,-333.5 291.88,-333.5 291.88,-333.5 285.88,-333.5 279.88,-327.5 279.88,-321.5 279.88,-321.5 279.88,-298.5 279.88,-298.5 279.88,-292.5 285.88,-286.5 291.88,-286.5 291.88,-286.5 427.88,-286.5 427.88,-286.5 433.88,-286.5 439.88,-292.5 439.88,-298.5 439.88,-298.5 439.88,-321.5 439.88,-321.5 439.88,-327.5 433.88,-333.5 427.88,-333.5"/>
<text xml:space="preserve" text-anchor="middle" x="359.88" y="-316.2" font-family="Segoe UI" font-size="14.00">helpers.tsx</text>
<text xml:space="preserve" text-anchor="middle" x="359.88" y="-296.7" font-family="Segoe UI" font-size="14.00">(postMessage wrapper)</text>
</g>
<!-- types -->
<g id="node14" class="node">
<title>types</title>
<path fill="none" stroke="black" d="M379.13,-388C379.13,-388 340.63,-388 340.63,-388 334.63,-388 328.63,-382 328.63,-376 328.63,-376 328.63,-364 328.63,-364 328.63,-358 334.63,-352 340.63,-352 340.63,-352 379.13,-352 379.13,-352 385.13,-352 391.13,-358 391.13,-364 391.13,-364 391.13,-376 391.13,-376 391.13,-382 385.13,-388 379.13,-388"/>
<text xml:space="preserve" text-anchor="middle" x="359.88" y="-366.45" font-family="Segoe UI" font-size="14.00">types.ts</text>
</g>
</g>
</svg>
